<svg width="28" height="22" viewBox="0 0 28 22" fill="none" xmlns="http://www.w3.org/2000/svg">
<path fill-rule="evenodd" clip-rule="evenodd" d="M0 20.4286C0 20.0118 0.163887 19.6121 0.45561 19.3174C0.747334 19.0227 1.143 18.8571 1.55556 18.8571H26.4444C26.857 18.8571 27.2527 19.0227 27.5444 19.3174C27.8361 19.6121 28 20.0118 28 20.4286C28 20.8453 27.8361 21.245 27.5444 21.5397C27.2527 21.8344 26.857 22 26.4444 22H1.55556C1.143 22 0.747334 21.8344 0.45561 21.5397C0.163887 21.245 0 20.8453 0 20.4286ZM0 11C0 10.5832 0.163887 10.1835 0.45561 9.88883C0.747334 9.59413 1.143 9.42857 1.55556 9.42857H18.1481C18.5607 9.42857 18.9564 9.59413 19.2481 9.88883C19.5398 10.1835 19.7037 10.5832 19.7037 11C19.7037 11.4168 19.5398 11.8165 19.2481 12.1112C18.9564 12.4059 18.5607 12.5714 18.1481 12.5714H1.55556C1.143 12.5714 0.747334 12.4059 0.45561 12.1112C0.163887 11.8165 0 11.4168 0 11ZM1.55556 -1.90735e-06C1.143 -1.90735e-06 0.747334 0.165558 0.45561 0.460258C0.163887 0.754959 0 1.15466 0 1.57143C0 1.9882 0.163887 2.38789 0.45561 2.68259C0.747334 2.97729 1.143 3.14286 1.55556 3.14286H26.4444C26.857 3.14286 27.2527 2.97729 27.5444 2.68259C27.8361 2.38789 28 1.9882 28 1.57143C28 1.15466 27.8361 0.754959 27.5444 0.460258C27.2527 0.165558 26.857 -1.90735e-06 26.4444 -1.90735e-06H1.55556Z" fill="white"/>
</svg>
