<svg width="496" height="187" viewBox="0 0 496 187" fill="none" xmlns="http://www.w3.org/2000/svg">
<path d="M485.214 158.78L485.994 165.98L485.814 164.9C486.574 163.34 487.614 162.02 488.934 160.94C490.254 159.82 491.554 158.96 492.834 158.36C494.154 157.76 495.154 157.46 495.834 157.46L495.414 165.86C493.454 165.62 491.774 165.94 490.374 166.82C488.974 167.7 487.894 168.86 487.134 170.3C486.374 171.74 485.994 173.22 485.994 174.74V185H477.654V158.78H485.214Z" fill="white"/>
<path d="M457.39 185.72C454.19 185.72 451.47 185.12 449.23 183.92C447.03 182.72 445.35 181.06 444.19 178.94C443.03 176.82 442.45 174.38 442.45 171.62C442.45 168.98 443.13 166.6 444.49 164.48C445.85 162.36 447.67 160.68 449.95 159.44C452.23 158.16 454.77 157.52 457.57 157.52C461.33 157.52 464.41 158.62 466.81 160.82C469.25 162.98 470.83 166.12 471.55 170.24L451.15 176.72L449.29 172.16L464.05 167.18L462.31 167.96C461.99 166.92 461.41 166.02 460.57 165.26C459.77 164.46 458.55 164.06 456.91 164.06C455.03 164.06 453.53 164.7 452.41 165.98C451.29 167.26 450.73 168.98 450.73 171.14C450.73 173.58 451.39 175.44 452.71 176.72C454.03 177.96 455.65 178.58 457.57 178.58C458.49 178.58 459.37 178.42 460.21 178.1C461.09 177.78 461.95 177.36 462.79 176.84L466.51 183.08C465.11 183.88 463.59 184.52 461.95 185C460.35 185.48 458.83 185.72 457.39 185.72Z" fill="white"/>
<path d="M423.337 147.26H431.737V158.66H438.097V165.2H431.737V185H423.337V165.2H419.257V158.66H423.337V147.26Z" fill="white"/>
<path d="M402.561 185.54C400.401 185.54 398.381 185.16 396.501 184.4C394.661 183.64 393.101 182.58 391.821 181.22L395.301 176.6C396.581 177.76 397.761 178.6 398.841 179.12C399.961 179.6 400.961 179.84 401.841 179.84C402.881 179.84 403.741 179.68 404.421 179.36C405.101 179.04 405.441 178.52 405.441 177.8C405.441 177.12 405.161 176.58 404.601 176.18C404.081 175.78 403.401 175.46 402.561 175.22C401.721 174.94 400.821 174.66 399.861 174.38C397.461 173.62 395.721 172.52 394.641 171.08C393.601 169.6 393.081 168 393.081 166.28C393.081 164.96 393.421 163.64 394.101 162.32C394.821 160.96 395.941 159.84 397.461 158.96C399.021 158.04 401.021 157.58 403.461 157.58C405.661 157.58 407.521 157.8 409.041 158.24C410.561 158.68 412.001 159.4 413.361 160.4L410.181 165.32C409.421 164.72 408.561 164.22 407.601 163.82C406.681 163.38 405.821 163.14 405.021 163.1C403.941 163.06 403.101 163.26 402.501 163.7C401.901 164.1 401.601 164.58 401.601 165.14C401.561 165.9 401.841 166.5 402.441 166.94C403.081 167.38 403.881 167.72 404.841 167.96C405.801 168.2 406.741 168.48 407.661 168.8C409.541 169.44 411.041 170.36 412.161 171.56C413.281 172.72 413.841 174.28 413.841 176.24C413.841 177.84 413.421 179.36 412.581 180.8C411.781 182.2 410.541 183.34 408.861 184.22C407.221 185.1 405.121 185.54 402.561 185.54Z" fill="white"/>
<path d="M357.723 171.56C357.723 168.88 358.343 166.48 359.583 164.36C360.863 162.24 362.643 160.58 364.923 159.38C367.203 158.14 369.823 157.52 372.783 157.52C375.783 157.52 378.383 158.14 380.583 159.38C382.783 160.58 384.463 162.24 385.623 164.36C386.823 166.48 387.423 168.88 387.423 171.56C387.423 174.24 386.823 176.66 385.623 178.82C384.463 180.94 382.783 182.62 380.583 183.86C378.383 185.1 375.743 185.72 372.663 185.72C369.783 185.72 367.203 185.16 364.923 184.04C362.683 182.92 360.923 181.3 359.643 179.18C358.363 177.06 357.723 174.52 357.723 171.56ZM366.183 171.62C366.183 172.98 366.463 174.22 367.023 175.34C367.583 176.42 368.343 177.28 369.303 177.92C370.263 178.56 371.343 178.88 372.543 178.88C374.503 178.88 376.063 178.2 377.223 176.84C378.383 175.44 378.963 173.7 378.963 171.62C378.963 169.54 378.383 167.82 377.223 166.46C376.063 165.06 374.503 164.36 372.543 164.36C371.343 164.36 370.263 164.68 369.303 165.32C368.343 165.96 367.583 166.82 367.023 167.9C366.463 168.98 366.183 170.22 366.183 171.62Z" fill="white"/>
<path d="M336.379 140.84C341.859 140.84 346.059 142.2 348.979 144.92C351.899 147.6 353.359 151.2 353.359 155.72C353.359 157.52 353.079 159.34 352.519 161.18C351.999 162.98 351.139 164.62 349.939 166.1C348.779 167.58 347.199 168.78 345.199 169.7C343.239 170.58 340.819 171.02 337.939 171.02H331.699V185H322.999V140.84H336.379ZM337.879 162.56C339.199 162.56 340.299 162.34 341.179 161.9C342.059 161.42 342.739 160.84 343.219 160.16C343.739 159.44 344.099 158.7 344.299 157.94C344.539 157.18 344.659 156.52 344.659 155.96C344.659 155.52 344.579 154.94 344.419 154.22C344.299 153.46 344.019 152.7 343.579 151.94C343.139 151.18 342.459 150.54 341.539 150.02C340.659 149.5 339.459 149.24 337.939 149.24H331.699V162.56H337.879Z" fill="white"/>
<path d="M277.508 171.56C277.508 168.88 278.128 166.48 279.368 164.36C280.648 162.24 282.428 160.58 284.708 159.38C286.988 158.14 289.608 157.52 292.568 157.52C295.568 157.52 298.168 158.14 300.368 159.38C302.568 160.58 304.248 162.24 305.408 164.36C306.608 166.48 307.208 168.88 307.208 171.56C307.208 174.24 306.608 176.66 305.408 178.82C304.248 180.94 302.568 182.62 300.368 183.86C298.168 185.1 295.528 185.72 292.448 185.72C289.568 185.72 286.988 185.16 284.708 184.04C282.468 182.92 280.708 181.3 279.428 179.18C278.148 177.06 277.508 174.52 277.508 171.56ZM285.968 171.62C285.968 172.98 286.248 174.22 286.808 175.34C287.368 176.42 288.128 177.28 289.088 177.92C290.048 178.56 291.128 178.88 292.328 178.88C294.288 178.88 295.848 178.2 297.008 176.84C298.168 175.44 298.748 173.7 298.748 171.62C298.748 169.54 298.168 167.82 297.008 166.46C295.848 165.06 294.288 164.36 292.328 164.36C291.128 164.36 290.048 164.68 289.088 165.32C288.128 165.96 287.368 166.82 286.808 167.9C286.248 168.98 285.968 170.22 285.968 171.62Z" fill="white"/>
<path d="M258.395 147.26H266.795V158.66H273.155V165.2H266.795V185H258.395V165.2H254.315V158.66H258.395V147.26Z" fill="white"/>
<path d="M229.356 186.26C226.996 186.26 225.016 185.54 223.416 184.1C221.816 182.62 220.976 180.72 220.896 178.4V158.78H229.296V175.28C229.376 176.44 229.676 177.38 230.196 178.1C230.716 178.78 231.596 179.12 232.836 179.12C234.076 179.12 235.136 178.7 236.016 177.86C236.936 177.02 237.636 175.88 238.116 174.44C238.636 172.96 238.896 171.3 238.896 169.46V158.78H247.296V185H239.676L239.016 180.2L239.136 180.74C238.256 182.38 236.996 183.72 235.356 184.76C233.716 185.76 231.716 186.26 229.356 186.26Z" fill="white"/>
<path d="M175.519 185L195.439 139.1H195.919L215.839 185H205.759L193.039 152.72L199.339 148.4L184.099 185H175.519ZM189.139 169.04H202.399L205.459 176.36H186.439L189.139 169.04Z" fill="white"/>
<path d="M154.275 137.66H162.675V185H154.275V137.66Z" fill="white"/>
<path d="M128.46 185.72C126.02 185.72 123.8 185.24 121.8 184.28C119.84 183.28 118.28 181.76 117.12 179.72C115.96 177.68 115.38 175.08 115.38 171.92C115.38 168.96 115.98 166.4 117.18 164.24C118.38 162.08 119.96 160.42 121.92 159.26C123.88 158.06 125.96 157.46 128.16 157.46C130.76 157.46 132.72 157.9 134.04 158.78C135.4 159.62 136.52 160.56 137.4 161.6L137.04 162.62L137.82 158.78H145.62V185H137.22V179.3L137.88 181.1C137.8 181.1 137.56 181.34 137.16 181.82C136.76 182.26 136.16 182.8 135.36 183.44C134.6 184.04 133.64 184.56 132.48 185C131.36 185.48 130.02 185.72 128.46 185.72ZM130.86 178.88C132.38 178.88 133.66 178.56 134.7 177.92C135.74 177.24 136.58 176.24 137.22 174.92V168.5C136.74 167.22 135.9 166.2 134.7 165.44C133.54 164.68 132.16 164.3 130.56 164.3C129.36 164.3 128.24 164.62 127.2 165.26C126.2 165.86 125.4 166.7 124.8 167.78C124.2 168.86 123.9 170.1 123.9 171.5C123.9 172.9 124.22 174.16 124.86 175.28C125.5 176.4 126.34 177.28 127.38 177.92C128.46 178.56 129.62 178.88 130.86 178.88Z" fill="white"/>
<path d="M100.369 158.78H108.769V185H100.369V158.78ZM100.189 149.48C100.189 148.24 100.669 147.22 101.629 146.42C102.629 145.62 103.689 145.22 104.809 145.22C105.929 145.22 106.949 145.62 107.869 146.42C108.829 147.22 109.309 148.24 109.309 149.48C109.309 150.72 108.829 151.74 107.869 152.54C106.949 153.3 105.929 153.68 104.809 153.68C103.689 153.68 102.629 153.3 101.629 152.54C100.669 151.74 100.189 150.72 100.189 149.48Z" fill="white"/>
<path d="M93.9178 182.66C92.7578 183.58 91.2978 184.32 89.5378 184.88C87.8178 185.44 86.1178 185.72 84.4378 185.72C81.4378 185.72 78.8178 185.18 76.5778 184.1C74.3778 182.98 72.6578 181.4 71.4178 179.36C70.2178 177.28 69.6178 174.78 69.6178 171.86C69.6178 168.94 70.2778 166.46 71.5978 164.42C72.9178 162.34 74.6378 160.76 76.7578 159.68C78.9178 158.6 81.1778 158.06 83.5378 158.06C85.8978 158.06 87.9378 158.38 89.6578 159.02C91.4178 159.66 92.9178 160.5 94.1578 161.54L90.0778 166.94C89.5178 166.5 88.7378 166.06 87.7378 165.62C86.7778 165.14 85.6378 164.9 84.3178 164.9C83.1578 164.9 82.0978 165.2 81.1378 165.8C80.1778 166.4 79.4178 167.22 78.8578 168.26C78.2978 169.3 78.0178 170.5 78.0178 171.86C78.0178 173.14 78.3178 174.32 78.9178 175.4C79.5178 176.48 80.3378 177.34 81.3778 177.98C82.4578 178.58 83.7178 178.88 85.1578 178.88C86.0778 178.88 86.9178 178.76 87.6778 178.52C88.4778 178.24 89.1578 177.86 89.7178 177.38L93.9178 182.66Z" fill="white"/>
<path d="M35.3405 171.56C35.3405 168.88 35.9605 166.48 37.2005 164.36C38.4805 162.24 40.2605 160.58 42.5405 159.38C44.8205 158.14 47.4405 157.52 50.4005 157.52C53.4005 157.52 56.0005 158.14 58.2005 159.38C60.4005 160.58 62.0805 162.24 63.2405 164.36C64.4405 166.48 65.0405 168.88 65.0405 171.56C65.0405 174.24 64.4405 176.66 63.2405 178.82C62.0805 180.94 60.4005 182.62 58.2005 183.86C56.0005 185.1 53.3605 185.72 50.2805 185.72C47.4005 185.72 44.8205 185.16 42.5405 184.04C40.3005 182.92 38.5405 181.3 37.2605 179.18C35.9805 177.06 35.3405 174.52 35.3405 171.56ZM43.8005 171.62C43.8005 172.98 44.0805 174.22 44.6405 175.34C45.2005 176.42 45.9605 177.28 46.9205 177.92C47.8805 178.56 48.9605 178.88 50.1605 178.88C52.1205 178.88 53.6805 178.2 54.8405 176.84C56.0005 175.44 56.5805 173.7 56.5805 171.62C56.5805 169.54 56.0005 167.82 54.8405 166.46C53.6805 165.06 52.1205 164.36 50.1605 164.36C48.9605 164.36 47.8805 164.68 46.9205 165.32C45.9605 165.96 45.2005 166.82 44.6405 167.9C44.0805 168.98 43.8005 170.22 43.8005 171.62Z" fill="white"/>
<path d="M27.36 151.52C25.68 150.6 23.96 149.84 22.2 149.24C20.48 148.64 18.86 148.34 17.34 148.34C15.46 148.34 13.98 148.72 12.9 149.48C11.82 150.24 11.28 151.38 11.28 152.9C11.28 153.94 11.68 154.88 12.48 155.72C13.32 156.52 14.38 157.24 15.66 157.88C16.98 158.52 18.34 159.1 19.74 159.62C21.46 160.26 23.12 161.08 24.72 162.08C26.32 163.04 27.64 164.38 28.68 166.1C29.72 167.78 30.24 170.02 30.24 172.82C30.24 175.06 29.66 177.14 28.5 179.06C27.34 180.98 25.64 182.54 23.4 183.74C21.16 184.9 18.4 185.48 15.12 185.48C12.6 185.48 10.02 185.1 7.38 184.34C4.78 183.58 2.32 182.38 0 180.74L3.84 173.96C5.36 175.08 7.1 176 9.06 176.72C11.02 177.44 12.78 177.8 14.34 177.8C15.38 177.8 16.42 177.66 17.46 177.38C18.54 177.06 19.42 176.54 20.1 175.82C20.82 175.1 21.18 174.1 21.18 172.82C21.18 171.94 20.88 171.14 20.28 170.42C19.72 169.7 18.94 169.04 17.94 168.44C16.98 167.84 15.92 167.32 14.76 166.88C13.4 166.36 12 165.76 10.56 165.08C9.12 164.4 7.76 163.58 6.48 162.62C5.24 161.62 4.22 160.4 3.42 158.96C2.66 157.48 2.28 155.68 2.28 153.56C2.28 151 2.84 148.78 3.96 146.9C5.12 145.02 6.74 143.54 8.82 142.46C10.9 141.34 13.3 140.72 16.02 140.6C19.58 140.6 22.46 141.02 24.66 141.86C26.9 142.7 28.9 143.7 30.66 144.86L27.36 151.52Z" fill="white"/>
<path d="M146.525 51.1557L137.071 29.7869V29.6574L146.525 8.28852L155.979 29.6574L174.629 71.618C177.219 65.4016 178.773 58.5377 178.773 51.4148C178.773 23.0525 155.72 0 127.358 0C98.9958 0 75.9434 23.0525 75.9434 51.4148C75.9434 58.5377 77.4975 65.4016 80.0876 71.618L95.8876 36.0033L105.342 57.3721L91.6139 88.3246C100.809 97.2607 113.501 102.7 127.358 102.7C141.215 102.7 153.778 97.2607 163.102 88.3246L146.525 51.1557ZM136.812 72.7836L129.301 89.6197H125.415L98.8663 29.5279L108.32 8.28852L117.775 29.6574L127.358 51.2853L133.704 36.9098L143.158 58.2787L136.812 72.7836Z" fill="white"/>
<path d="M396.307 80.3923C391.126 80.3923 386.723 79.4209 383.097 77.4783C379.535 75.5357 376.816 72.8484 374.938 69.4164C373.06 65.9845 372.121 62.0345 372.121 57.5664C372.121 53.2927 373.222 49.4398 375.423 46.0078C377.625 42.5758 380.571 39.8562 384.262 37.8488C387.953 35.7767 392.065 34.7406 396.598 34.7406C402.685 34.7406 407.671 36.5213 411.556 40.0828C415.506 43.5795 418.064 48.6627 419.23 55.3324L386.205 65.8226L383.194 58.4406L407.088 50.3787L404.271 51.6414C403.753 49.9578 402.814 48.5008 401.455 47.2705C400.159 45.9754 398.184 45.3279 395.53 45.3279C392.486 45.3279 390.058 46.364 388.245 48.4361C386.432 50.5082 385.525 53.2927 385.525 56.7894C385.525 60.7394 386.594 63.7504 388.73 65.8226C390.867 67.83 393.49 68.8336 396.598 68.8336C398.087 68.8336 399.512 68.5746 400.872 68.0566C402.296 67.5386 403.689 66.8586 405.048 66.0168L411.071 76.1185C408.804 77.4136 406.344 78.4496 403.689 79.2267C401.098 80.0037 398.638 80.3923 396.307 80.3923Z" fill="white"/>
<path d="M347.821 2.59015H361.419V79.2266H347.821V2.59015Z" fill="white"/>
<path d="M308.307 100.595C304.486 100.595 301.248 100.142 298.593 99.2357C296.003 98.3291 293.802 97.2283 291.989 95.9332C290.175 94.6381 288.557 93.4078 287.132 92.2422L295.097 82.9176C296.586 84.2775 298.302 85.5725 300.245 86.8029C302.252 88.0979 304.875 88.7455 308.112 88.7455C311.35 88.7455 314.167 87.9037 316.563 86.2201C319.023 84.6012 320.254 82.2053 320.254 79.0324V69.7078L320.739 72.1361C319.703 74.3377 317.825 76.2803 315.106 77.9639C312.386 79.5828 308.825 80.3922 304.421 80.3922C300.601 80.3922 297.039 79.4209 293.737 77.4783C290.499 75.4709 287.909 72.7836 285.966 69.4164C284.024 65.9844 283.052 62.0992 283.052 57.7606C283.052 53.2926 284.089 49.3426 286.161 45.9106C288.233 42.4139 290.92 39.6619 294.223 37.6545C297.525 35.6471 301.022 34.6434 304.713 34.6434C308.404 34.6434 311.577 35.1938 314.232 36.2947C316.951 37.3307 318.991 38.6258 320.351 40.1799L319.865 41.4426L321.322 36.7803H333.852V79.2266C333.852 83.3709 332.687 87.0295 330.355 90.2025C328.024 93.4402 324.916 95.9656 321.031 97.7787C317.21 99.6566 312.969 100.595 308.307 100.595ZM296.748 57.3721C296.748 59.6385 297.266 61.6783 298.302 63.4914C299.338 65.3045 300.73 66.7291 302.479 67.7652C304.292 68.8012 306.299 69.3193 308.501 69.3193C311.285 69.3193 313.616 68.8012 315.494 67.7652C317.437 66.6643 319.023 65.0455 320.254 62.9086V52.5156C319.347 50.4434 317.858 48.7922 315.786 47.5619C313.714 46.3315 311.285 45.7164 308.501 45.7164C306.299 45.7164 304.292 46.2344 302.479 47.2705C300.73 48.2418 299.338 49.6016 298.302 51.35C297.266 53.0984 296.748 55.1057 296.748 57.3721Z" fill="white"/>
<path d="M241.019 36.7804L242.087 44.3566L241.893 43.6767C243.383 41.0218 245.487 38.8849 248.207 37.266C250.926 35.5824 254.261 34.7406 258.211 34.7406C262.226 34.7406 265.561 35.9386 268.216 38.3345C270.935 40.6656 272.328 43.709 272.392 47.4648V79.2267H258.794V52.5156C258.729 50.6377 258.211 49.1484 257.24 48.0476C256.333 46.882 254.779 46.2992 252.578 46.2992C249.405 46.2992 246.879 47.7886 245.001 50.7672C243.188 53.6812 242.282 57.4045 242.282 61.9373V79.2267H228.683V36.7804H241.019Z" fill="white"/>
<path d="M201.08 36.7803H214.679V79.2266H201.08V36.7803ZM200.789 21.725C200.789 19.7176 201.566 18.0664 203.12 16.7713C204.739 15.4762 206.455 14.8287 208.268 14.8287C210.081 14.8287 211.733 15.4762 213.222 16.7713C214.776 18.0664 215.553 19.7176 215.553 21.725C215.553 23.7324 214.776 25.3836 213.222 26.6787C211.733 27.909 210.081 28.5242 208.268 28.5242C206.455 28.5242 204.739 27.909 203.12 26.6787C201.566 25.3836 200.789 23.7324 200.789 21.725Z" fill="white"/>
</svg>
