<svg width="130" height="39" viewBox="0 0 130 39" fill="none" xmlns="http://www.w3.org/2000/svg">
<path d="M26.5469 19.2404L22.9911 11.2033V11.1546L26.5469 3.11743L30.1027 11.1546L37.117 26.9366C38.0911 24.5985 38.6757 22.0169 38.6757 19.3378C38.6757 8.67036 30.0053 0 19.3378 0C8.67036 0 0 8.67036 0 19.3378C0 22.0169 0.584519 24.5985 1.55872 26.9366L7.50133 13.5414L11.0571 21.5785L5.8939 33.2202C9.3523 36.5811 14.1259 38.627 19.3378 38.627C24.5498 38.627 29.2747 36.5811 32.7818 33.2202L26.5469 19.2404ZM22.8937 27.375L20.0685 33.7073H18.6072L8.62165 11.1059L12.1775 3.11743L15.7333 11.1546L19.3378 19.2891L21.7246 13.8823L25.2804 21.9195L22.8937 27.375Z" fill="#1958F4"/>
<path d="M120.493 30.2364C118.545 30.2364 116.889 29.8711 115.525 29.1404C114.185 28.4098 113.162 27.3991 112.456 26.1082C111.75 24.8174 111.397 23.3318 111.397 21.6513C111.397 20.0439 111.811 18.5947 112.639 17.3039C113.467 16.0131 114.575 14.9902 115.963 14.2352C117.352 13.4558 118.898 13.0662 120.603 13.0662C122.892 13.0662 124.768 13.7359 126.229 15.0754C127.715 16.3906 128.677 18.3025 129.115 20.811L116.694 24.7565L115.561 21.9801L124.548 18.9479L123.489 19.4228C123.294 18.7896 122.941 18.2416 122.43 17.7788C121.942 17.2917 121.2 17.0482 120.201 17.0482C119.056 17.0482 118.143 17.4379 117.461 18.2172C116.779 18.9966 116.438 20.0439 116.438 21.359C116.438 22.8447 116.84 23.9772 117.644 24.7565C118.447 25.5115 119.434 25.889 120.603 25.889C121.163 25.889 121.699 25.7916 122.21 25.5968C122.746 25.4019 123.27 25.1462 123.781 24.8296L126.046 28.629C125.194 29.1161 124.268 29.5058 123.27 29.798C122.296 30.0903 121.37 30.2364 120.493 30.2364Z" fill="#1958F4"/>
<path d="M102.257 0.974121H107.371V29.7982H102.257V0.974121Z" fill="#1958F4"/>
<path d="M87.395 37.8351C85.9581 37.8351 84.7403 37.6646 83.7418 37.3236C82.7676 36.9826 81.9395 36.5686 81.2576 36.0815C80.5757 35.5944 79.9668 35.1317 79.431 34.6933L82.4266 31.1862C82.9868 31.6976 83.6322 32.1847 84.3628 32.6475C85.1179 33.1346 86.1042 33.3781 87.322 33.3781C88.5397 33.3781 89.5992 33.0615 90.5003 32.4283C91.4258 31.8194 91.8885 30.9183 91.8885 29.7249V26.2178L92.0712 27.1311C91.6815 27.9591 90.9752 28.6898 89.9523 29.323C88.9294 29.9319 87.5899 30.2363 85.9337 30.2363C84.4968 30.2363 83.1573 29.871 81.9152 29.1403C80.6974 28.3853 79.7232 27.3746 78.9926 26.1082C78.2619 24.8173 77.8966 23.356 77.8966 21.7243C77.8966 20.0438 78.2863 18.5581 79.0656 17.2673C79.845 15.9521 80.8557 14.9171 82.0978 14.162C83.3399 13.407 84.6551 13.0295 86.0433 13.0295C87.4316 13.0295 88.625 13.2366 89.6235 13.6506C90.6464 14.0403 91.4136 14.5274 91.9251 15.1119L91.7424 15.5868L92.2904 13.8333H97.0031V29.7979C97.0031 31.3566 96.5647 32.7327 95.6879 33.9261C94.8111 35.1438 93.6421 36.0937 92.1808 36.7756C90.7438 37.4819 89.1486 37.8351 87.395 37.8351ZM83.0477 21.5781C83.0477 22.4306 83.2425 23.1977 83.6322 23.8797C84.0219 24.5616 84.5455 25.0974 85.2031 25.4871C85.885 25.8768 86.64 26.0716 87.4681 26.0716C88.5154 26.0716 89.3921 25.8768 90.0984 25.4871C90.8291 25.0731 91.4258 24.4642 91.8885 23.6605V19.7515C91.5476 18.9722 90.9874 18.3511 90.208 17.8884C89.4287 17.4256 88.5154 17.1942 87.4681 17.1942C86.64 17.1942 85.885 17.3891 85.2031 17.7788C84.5455 18.1441 84.0219 18.6555 83.6322 19.3131C83.2425 19.9707 83.0477 20.7257 83.0477 21.5781Z" fill="#1958F4"/>
<path d="M62.0873 13.8333L62.4891 16.6829L62.416 16.4271C62.9762 15.4286 63.7677 14.6249 64.7906 14.016C65.8136 13.3828 67.0678 13.0662 68.5535 13.0662C70.0635 13.0662 71.3178 13.5167 72.3163 14.4179C73.3392 15.2946 73.8629 16.4393 73.8872 17.8519V29.798H68.7727V19.7516C68.7483 19.0453 68.5535 18.4851 68.1882 18.0711C67.8472 17.6327 67.2627 17.4135 66.4346 17.4135C65.2412 17.4135 64.2914 17.9737 63.5851 19.094C62.9031 20.19 62.5622 21.5904 62.5622 23.2952V29.798H57.4476V13.8333H62.0873Z" fill="#1958F4"/>
<path d="M47.0659 13.8335H52.1804V29.7981H47.0659V13.8335ZM46.9563 8.17095C46.9563 7.41595 47.2486 6.7949 47.8331 6.3078C48.442 5.8207 49.0874 5.57715 49.7693 5.57715C50.4512 5.57715 51.0723 5.8207 51.6325 6.3078C52.217 6.7949 52.5092 7.41595 52.5092 8.17095C52.5092 8.92595 52.217 9.54701 51.6325 10.0341C51.0723 10.4968 50.4512 10.7282 49.7693 10.7282C49.0874 10.7282 48.442 10.4968 47.8331 10.0341C47.2486 9.54701 46.9563 8.92595 46.9563 8.17095Z" fill="#1958F4"/>
</svg>
